<?xml version="1.0" encoding="UTF-8" standalone="no"?>
<!-- Created with Inkscape (http://www.inkscape.org/) -->

<svg
   xmlns:dc="http://purl.org/dc/elements/1.1/"
   xmlns:cc="http://creativecommons.org/ns#"
   xmlns:rdf="http://www.w3.org/1999/02/22-rdf-syntax-ns#"
   xmlns:svg="http://www.w3.org/2000/svg"
   xmlns="http://www.w3.org/2000/svg"
   xmlns:sodipodi="http://sodipodi.sourceforge.net/DTD/sodipodi-0.dtd"
   xmlns:inkscape="http://www.inkscape.org/namespaces/inkscape"
   width="18.45542"
   height="18.000002"
   id="svg3466"
   version="1.1"
   inkscape:version="0.48.2 r9819"
   sodipodi:docname="github-mark-source.svg"
   inkscape:export-filename="/Users/ryanshaw/Code/periodo.github.io/images/github-mark.png"
   inkscape:export-xdpi="89.999992"
   inkscape:export-ydpi="89.999992">
  <defs
     id="defs3468" />
  <sodipodi:namedview
     id="base"
     pagecolor="#ffffff"
     bordercolor="#666666"
     borderopacity="1.0"
     inkscape:pageopacity="0.0"
     inkscape:pageshadow="2"
     inkscape:zoom="5.941803"
     inkscape:cx="20.361875"
     inkscape:cy="19.85929"
     inkscape:document-units="px"
     inkscape:current-layer="layer1"
     showgrid="false"
     inkscape:showpageshadow="false"
     fit-margin-top="0"
     fit-margin-left="0"
     fit-margin-right="0"
     fit-margin-bottom="0" />
  <metadata
     id="metadata3471">
    <rdf:RDF>
      <cc:Work
         rdf:about="">
        <dc:format>image/svg+xml</dc:format>
        <dc:type
           rdf:resource="http://purl.org/dc/dcmitype/StillImage" />
        <dc:title></dc:title>
      </cc:Work>
    </rdf:RDF>
  </metadata>
  <g
     inkscape:label="Layer 1"
     inkscape:groupmode="layer"
     id="layer1"
     transform="translate(-311.0667,-442.7929)">
    <path
       inkscape:connector-curvature="0"
       id="path24"
       style="fill:#1b1817;fill-opacity:1;fill-rule:evenodd;stroke:none"
       d="m 320.29361,442.7929 c -5.09498,0 -9.22691,4.13138 -9.22691,9.22805 0,4.07644 2.64378,7.53538 6.31064,8.75617 0.46169,0.0844 0.62995,-0.20055 0.62995,-0.44526 0,-0.21924 -0.008,-0.79931 -0.0125,-1.56917 -2.56675,0.55743 -3.1083,-1.23721 -3.1083,-1.23721 -0.41977,-1.06611 -1.02478,-1.34993 -1.02478,-1.34993 -0.83784,-0.57215 0.0633,-0.56081 0.0633,-0.56081 0.92621,0.0651 1.41339,0.95112 1.41339,0.95112 0.8231,1.40998 2.16,1.00269 2.6857,0.76646 0.0838,-0.59593 0.32233,-1.00269 0.58575,-1.23325 -2.04898,-0.23339 -4.20332,-1.02476 -4.20332,-4.56077 0,-1.00777 0.35971,-1.83087 0.95,-2.4761 -0.0952,-0.23339 -0.41184,-1.1715 0.0907,-2.44213 0,0 0.77438,-0.24812 2.53729,0.94547 0.73586,-0.2045 1.52553,-0.30647 2.31013,-0.31043 0.78401,0.003 1.57312,0.10598 2.31012,0.31043 1.76177,-1.19359 2.53503,-0.94547 2.53503,-0.94547 0.50359,1.27063 0.18693,2.20874 0.0924,2.44213 0.59141,0.64523 0.9483,1.46833 0.9483,2.4761 0,3.54508 -2.15775,4.32512 -4.21295,4.55342 0.33082,0.28494 0.62596,0.84802 0.62596,1.70907 0,1.23325 -0.0114,2.22856 -0.0114,2.53107 0,0.24699 0.16655,0.5342 0.63446,0.44412 3.66403,-1.22303 6.30555,-4.67917 6.30555,-8.75503 0,-5.09667 -4.13195,-9.22805 -9.22862,-9.22805" />
  </g>
</svg>
