<svg xmlns:svg="http://www.w3.org/2000/svg" xmlns="http://www.w3.org/2000/svg" width="18.46" height="18" version="1.1"><g transform="translate(-311.0667,-442.7929)"><path d="m320.29 442.79c-5.09 0-9.23 4.13-9.23 9.23 0 4.08 2.64 7.54 6.31 8.76 0.46 0.08 0.63-0.2 0.63-0.45 0-0.22-0.01-0.8-0.01-1.57-2.57 0.56-3.11-1.24-3.11-1.24-0.42-1.07-1.02-1.35-1.02-1.35-0.84-0.57 0.06-0.56 0.06-0.56 0.93 0.07 1.41 0.95 1.41 0.95 0.82 1.41 2.16 1 2.69 0.77 0.08-0.6 0.32-1 0.59-1.23-2.05-0.23-4.2-1.02-4.2-4.56 0-1.01 0.36-1.83 0.95-2.48-0.1-0.23-0.41-1.17 0.09-2.44 0 0 0.77-0.25 2.54 0.95 0.74-0.2 1.53-0.31 2.31-0.31 0.78 0 1.57 0.11 2.31 0.31 1.76-1.19 2.54-0.95 2.54-0.95 0.5 1.27 0.19 2.21 0.09 2.44 0.59 0.65 0.95 1.47 0.95 2.48 0 3.55-2.16 4.33-4.21 4.55 0.33 0.28 0.63 0.85 0.63 1.71 0 1.23-0.01 2.23-0.01 2.53 0 0.25 0.17 0.53 0.63 0.44 3.66-1.22 6.31-4.68 6.31-8.76 0-5.1-4.13-9.23-9.23-9.23" fill="#1b1817"/></g></svg>