<?xml version="1.0" encoding="UTF-8"?>
<!DOCTYPE svg PUBLIC "-//W3C//DTD SVG 1.1//EN" "http://www.w3.org/Graphics/SVG/1.1/DTD/svg11.dtd">
<svg version="1.1" xmlns="http://www.w3.org/2000/svg" xmlns:xlink="http://www.w3.org/1999/xlink" x="0" y="0" width="210" height="78" viewBox="0, 0, 700, 260">
  <g id="Layer_1">
    <g>
      <path d="M92.71,130.006 C92.71,125.477 96.381,121.806 100.912,121.806 C105.439,121.806 109.107,125.477 109.107,130.006 C109.107,134.533 105.439,138.2 100.912,138.2 C96.381,138.2 92.71,134.533 92.71,130.006" fill="#336751"/>
      <path d="M73.759,130.006 C73.759,125.932 77.061,122.629 81.133,122.629 C85.21,122.629 88.516,125.932 88.516,130.006 C88.516,134.079 85.21,137.379 81.133,137.379 C77.061,137.379 73.759,134.079 73.759,130.006" fill="#336751"/>
      <path d="M55.465,130.006 C55.465,126.34 58.44,123.366 62.11,123.366 C65.776,123.366 68.745,126.34 68.745,130.006 C68.745,133.673 65.776,136.644 62.11,136.644 C58.44,136.644 55.465,133.673 55.465,130.006" fill="#336751"/>
      <path d="M37.288,130.006 C37.288,126.705 39.968,124.029 43.271,124.029 C46.57,124.029 49.242,126.705 49.242,130.006 C49.242,133.309 46.57,135.98 43.271,135.98 C39.968,135.98 37.288,133.309 37.288,130.006" fill="#336751"/>
      <path d="M18.863,130.006 C18.863,127.033 21.275,124.624 24.245,124.624 C27.215,124.624 29.622,127.033 29.622,130.006 C29.622,132.973 27.215,135.383 24.245,135.383 C21.275,135.383 18.863,132.973 18.863,130.006" fill="#336751"/>
      <path d="M0,130.006 C0,127.331 2.172,125.167 4.842,125.167 C7.514,125.167 9.686,127.331 9.686,130.006 C9.686,132.674 7.514,134.842 4.842,134.842 C2.172,134.842 0,132.674 0,130.006" fill="#336751"/>
      <path d="M127.493,93.169 C132.021,93.169 135.697,96.843 135.697,101.363 C135.697,105.897 132.021,109.563 127.493,109.563 C122.968,109.563 119.3,105.897 119.3,101.363 C119.3,96.843 122.968,93.169 127.493,93.169" fill="#336751"/>
      <path d="M127.493,74.213 C131.567,74.213 134.872,77.518 134.872,81.593 C134.872,85.668 131.567,88.97 127.493,88.97 C123.42,88.97 120.118,85.668 120.118,81.593 C120.118,77.518 123.42,74.213 127.493,74.213" fill="#336751"/>
      <path d="M127.493,55.927 C131.163,55.927 134.137,58.894 134.137,62.568 C134.137,66.234 131.163,69.209 127.493,69.209 C123.826,69.209 120.857,66.234 120.857,62.568 C120.857,58.894 123.826,55.927 127.493,55.927" fill="#336751"/>
      <path d="M127.493,37.747 C130.795,37.747 133.473,40.423 133.473,43.725 C133.473,47.034 130.795,49.702 127.493,49.702 C124.192,49.702 121.518,47.034 121.518,43.725 C121.518,40.423 124.192,37.747 127.493,37.747" fill="#336751"/>
      <path d="M127.493,19.327 C130.467,19.327 132.875,21.736 132.875,24.703 C132.875,27.673 130.467,30.079 127.493,30.079 C124.524,30.079 122.117,27.673 122.117,24.703 C122.117,21.736 124.524,19.327 127.493,19.327" fill="#336751"/>
      <path d="M127.493,0.458 C130.17,0.458 132.339,2.63 132.339,5.302 C132.339,7.977 130.17,10.135 127.493,10.135 C124.82,10.135 122.651,7.977 122.651,5.302 C122.651,2.63 124.82,0.458 127.493,0.458" fill="#336751"/>
      <path d="M79.666,107.756 C81.206,104.417 85.148,102.952 88.478,104.493 C91.805,106.024 93.265,109.968 91.73,113.302 C90.196,116.638 86.257,118.092 82.927,116.562 C79.591,115.027 78.138,111.087 79.666,107.756" fill="#336751"/>
      <path d="M63.156,100.145 C64.536,97.156 68.094,95.83 71.09,97.222 C74.091,98.6 75.398,102.15 74.017,105.146 C72.641,108.149 69.091,109.465 66.099,108.077 C63.094,106.695 61.778,103.148 63.156,100.145" fill="#336751"/>
      <path d="M46.419,92.44 C47.66,89.75 50.86,88.569 53.556,89.809 C56.25,91.048 57.444,94.24 56.194,96.938 C54.946,99.642 51.755,100.827 49.058,99.577 C46.366,98.33 45.174,95.145 46.419,92.44" fill="#336751"/>
      <path d="M29.285,84.56 C30.406,82.132 33.28,81.061 35.713,82.184 C38.131,83.299 39.199,86.178 38.082,88.605 C36.965,91.041 34.087,92.097 31.66,90.975 C29.234,89.863 28.166,86.98 29.285,84.56" fill="#336751"/>
      <path d="M107.924,79.931 C111.405,78.75 115.179,80.609 116.349,84.089 C117.524,87.556 115.664,91.328 112.189,92.505 C108.717,93.687 104.945,91.828 103.773,88.351 C102.585,84.881 104.455,81.112 107.924,79.931" fill="#336751"/>
      <path d="M102.091,62.713 C105.211,61.657 108.621,63.33 109.674,66.464 C110.738,69.587 109.055,72.981 105.929,74.038 C102.807,75.105 99.406,73.429 98.361,70.31 C97.291,67.175 98.964,63.778 102.091,62.713" fill="#336751"/>
      <path d="M96.171,45.27 C98.983,44.315 102.04,45.824 102.99,48.638 C103.946,51.437 102.448,54.502 99.632,55.453 C96.813,56.408 93.762,54.906 92.811,52.082 C91.86,49.279 93.354,46.217 96.171,45.27" fill="#336751"/>
      <path d="M90.11,27.403 C92.643,26.55 95.404,27.903 96.259,30.436 C97.108,32.965 95.754,35.714 93.223,36.577 C90.69,37.445 87.941,36.082 87.089,33.537 C86.23,31.019 87.588,28.26 90.11,27.403" fill="#336751"/>
      <path d="M101.623,103.341 C98.417,106.545 98.409,111.735 101.617,114.936 C104.812,118.143 110.009,118.139 113.209,114.943 C116.415,111.739 116.415,106.549 113.214,103.349 C110.015,100.145 104.828,100.138 101.623,103.341" fill="#336751"/>
      <path d="M88.23,89.929 C85.339,92.804 85.339,97.481 88.224,100.364 C91.1,103.244 95.772,103.244 98.65,100.374 C101.539,97.492 101.539,92.816 98.655,89.933 C95.777,87.049 91.107,87.049 88.23,89.929" fill="#336751"/>
      <path d="M75.304,76.99 C72.707,79.578 72.701,83.784 75.291,86.383 C77.888,88.977 82.087,88.977 84.689,86.386 C87.284,83.787 87.284,79.589 84.689,76.997 C82.104,74.398 77.893,74.392 75.304,76.99" fill="#336751"/>
      <path d="M62.455,64.124 C60.122,66.467 60.116,70.248 62.449,72.58 C64.781,74.916 68.568,74.924 70.906,72.584 C73.239,70.251 73.245,66.467 70.906,64.135 C68.574,61.795 64.792,61.788 62.455,64.124" fill="#336751"/>
      <path d="M49.431,51.087 C47.327,53.194 47.332,56.598 49.426,58.704 C51.525,60.796 54.93,60.796 57.035,58.704 C59.134,56.598 59.134,53.201 57.04,51.102 C54.941,48.995 51.536,48.991 49.431,51.087" fill="#336751"/>
      <path d="M36.099,37.74 C34.208,39.635 34.208,42.704 36.099,44.599 C37.989,46.487 41.05,46.48 42.942,44.592 C44.832,42.711 44.838,39.646 42.947,37.751 C41.058,35.855 37.989,35.855 36.099,37.74" fill="#336751"/>
      <path d="M127.589,167.288 C123.061,167.288 119.389,163.618 119.389,159.087 C119.389,154.561 123.061,150.894 127.589,150.894 C132.118,150.894 135.785,154.561 135.785,159.087 C135.785,163.618 132.118,167.288 127.589,167.288" fill="#336751"/>
      <path d="M127.589,186.241 C123.516,186.241 120.214,182.939 120.214,178.865 C120.214,174.79 123.516,171.487 127.589,171.487 C131.662,171.487 134.965,174.79 134.965,178.865 C134.965,182.939 131.662,186.241 127.589,186.241" fill="#336751"/>
      <path d="M127.589,204.535 C123.923,204.535 120.951,201.564 120.951,197.889 C120.951,194.224 123.923,191.256 127.589,191.256 C131.256,191.256 134.229,194.224 134.229,197.889 C134.229,201.564 131.256,204.535 127.589,204.535" fill="#336751"/>
      <path d="M127.589,222.71 C124.288,222.71 121.614,220.035 121.614,216.734 C121.614,213.431 124.288,210.755 127.589,210.755 C130.892,210.755 133.565,213.431 133.565,216.734 C133.565,220.035 130.892,222.71 127.589,222.71" fill="#336751"/>
      <path d="M127.589,241.139 C124.617,241.139 122.207,238.726 122.207,235.758 C122.207,232.784 124.617,230.378 127.589,230.378 C130.557,230.378 132.967,232.784 132.967,235.758 C132.967,238.726 130.557,241.139 127.589,241.139" fill="#336751"/>
      <path d="M127.589,260 C124.916,260 122.751,257.831 122.751,255.156 C122.751,252.488 124.916,250.315 127.589,250.315 C130.258,250.315 132.428,252.488 132.428,255.156 C132.428,257.831 130.258,260 127.589,260" fill="#336751"/>
      <path d="M107.669,178.777 C104.332,177.24 102.868,173.294 104.411,169.968 C105.941,166.64 109.883,165.178 113.223,166.712 C116.553,168.248 118.006,172.187 116.475,175.519 C114.944,178.853 111.002,180.307 107.669,178.777" fill="#336751"/>
      <path d="M100.061,195.287 C97.07,193.91 95.749,190.349 97.135,187.353 C98.517,184.353 102.065,183.044 105.062,184.426 C108.065,185.804 109.38,189.355 107.993,192.343 C106.612,195.348 103.064,196.666 100.061,195.287" fill="#336751"/>
      <path d="M92.357,212.023 C89.664,210.784 88.486,207.584 89.724,204.887 C90.963,202.194 94.158,201.002 96.855,202.249 C99.56,203.496 100.744,206.689 99.494,209.384 C98.249,212.079 95.06,213.27 92.357,212.023" fill="#336751"/>
      <path d="M84.479,229.157 C82.05,228.039 80.979,225.164 82.098,222.733 C83.216,220.311 86.094,219.244 88.523,220.364 C90.958,221.479 92.015,224.358 90.89,226.785 C89.779,229.209 86.896,230.277 84.479,229.157" fill="#336751"/>
      <path d="M79.533,150.985 C78.352,147.505 80.213,143.729 83.694,142.563 C87.162,141.386 90.932,143.249 92.108,146.721 C93.289,150.196 91.432,153.963 87.957,155.138 C84.486,156.325 80.716,154.455 79.533,150.985" fill="#336751"/>
      <path d="M62.319,156.82 C61.262,153.702 62.935,150.29 66.069,149.236 C69.191,148.171 72.586,149.855 73.642,152.979 C74.71,156.107 73.035,159.503 69.913,160.548 C66.779,161.618 63.384,159.949 62.319,156.82" fill="#336751"/>
      <path d="M44.874,162.74 C43.922,159.926 45.429,156.873 48.241,155.921 C51.042,154.966 54.106,156.464 55.061,159.278 C56.014,162.098 54.51,165.15 51.686,166.099 C48.885,167.051 45.821,165.553 44.874,162.74" fill="#336751"/>
      <path d="M27.009,168.8 C26.157,166.268 27.508,163.505 30.042,162.652 C32.569,161.799 35.317,163.156 36.181,165.685 C37.048,168.222 35.686,170.97 33.144,171.822 C30.622,172.68 27.863,171.32 27.009,168.8" fill="#336751"/>
      <path d="M102.014,155.887 C105.218,159.095 110.407,159.103 113.61,155.896 C116.816,152.703 116.813,147.505 113.616,144.301 C110.414,141.097 105.224,141.097 102.024,144.298 C98.817,147.498 98.811,152.68 102.014,155.887" fill="#336751"/>
      <path d="M88.603,169.279 C91.481,172.173 96.155,172.173 99.038,169.287 C101.916,166.411 101.917,161.742 99.047,158.862 C96.165,155.972 91.49,155.972 88.607,158.855 C85.722,161.734 85.722,166.406 88.603,169.279" fill="#336751"/>
      <path d="M75.664,182.21 C78.252,184.804 82.457,184.812 85.055,182.216 C87.652,179.623 87.652,175.423 85.059,172.821 C82.46,170.227 78.262,170.227 75.67,172.821 C73.075,175.41 73.066,179.615 75.664,182.21" fill="#336751"/>
      <path d="M62.798,195.054 C65.14,197.387 68.919,197.393 71.253,195.061 C73.593,192.729 73.594,188.946 71.258,186.606 C68.925,184.272 65.143,184.266 62.81,186.606 C60.472,188.938 60.462,192.718 62.798,195.054" fill="#336751"/>
      <path d="M49.762,208.081 C51.866,210.187 55.272,210.18 57.375,208.088 C59.473,205.988 59.473,202.584 57.379,200.477 C55.272,198.378 51.876,198.378 49.772,200.47 C47.667,202.569 47.664,205.974 49.762,208.081" fill="#336751"/>
      <path d="M36.416,221.413 C38.308,223.301 41.377,223.301 43.273,221.413 C45.16,219.525 45.155,216.458 43.268,214.568 C41.384,212.679 38.321,212.673 36.423,214.56 C34.528,216.456 34.528,219.525 36.416,221.413" fill="#336751"/>
      <path d="M206.05,133.977 C205.751,127.483 205.378,119.72 205.453,112.853 L205.229,112.853 C203.587,118.974 201.497,125.767 199.257,132.111 L191.868,153.908 L184.851,153.908 L178.133,132.41 C176.192,125.99 174.401,119.123 173.057,112.853 L172.908,112.853 C172.684,119.422 172.386,127.409 172.012,134.276 L170.893,154.504 L162.309,154.504 L165.668,104.194 L177.76,104.194 L184.329,124.423 C186.12,130.32 187.688,136.292 188.957,141.889 L189.181,141.889 C190.524,136.441 192.241,130.245 194.182,124.348 L201.124,104.194 L213.066,104.194 L215.978,154.504 L207.021,154.504 L206.05,133.977" fill="#1A1919"/>
      <path d="M254.494,143.606 C254.494,147.936 254.643,151.519 254.792,154.504 L246.805,154.504 L246.357,149.055 L246.133,149.055 C244.566,151.593 240.983,155.326 234.415,155.326 C227.846,155.326 221.8,151.37 221.8,139.5 L221.8,118.153 L230.981,118.153 L230.981,137.933 C230.981,143.98 232.921,147.861 237.773,147.861 C241.505,147.861 243.894,145.323 244.79,142.934 C245.163,142.188 245.313,141.143 245.313,140.098 L245.313,118.153 L254.494,118.153 L254.494,143.606" fill="#1A1919"/>
      <path d="M262.33,145.995 C264.346,147.264 268.302,148.682 271.586,148.682 C275.617,148.682 277.408,146.965 277.408,144.577 C277.408,142.114 275.916,140.919 271.437,139.277 C264.346,136.888 261.435,133.007 261.435,128.677 C261.435,122.258 266.734,117.332 275.169,117.332 C279.2,117.332 282.708,118.302 284.873,119.496 L283.006,125.916 C281.514,125.02 278.528,123.826 275.318,123.826 C272.034,123.826 270.242,125.468 270.242,127.708 C270.242,130.021 271.959,131.066 276.587,132.783 C283.23,135.097 286.216,138.456 286.291,143.831 C286.291,150.473 281.141,155.25 271.511,155.25 C267.107,155.25 263.151,154.206 260.464,152.713 L262.33,145.995" fill="#1A1919"/>
      <path d="M298.606,138.904 C298.831,145.472 303.981,148.309 309.803,148.309 C314.058,148.309 317.043,147.637 319.88,146.666 L321.224,152.937 C318.089,154.281 313.759,155.25 308.534,155.25 C296.74,155.25 289.798,148.01 289.798,136.888 C289.798,126.811 295.919,117.332 307.564,117.332 C319.357,117.332 323.239,127.036 323.239,135.022 C323.239,136.739 323.09,138.083 322.94,138.904 L298.606,138.904 z M314.581,132.485 C314.655,129.125 313.162,123.602 307.042,123.602 C301.368,123.602 298.98,128.752 298.606,132.485 L314.581,132.485" fill="#1A1919"/>
      <path d="M361.456,143.606 C361.456,147.936 361.605,151.519 361.755,154.504 L353.768,154.504 L353.32,149.055 L353.096,149.055 C351.528,151.593 347.945,155.326 341.377,155.326 C334.808,155.326 328.762,151.37 328.762,139.5 L328.762,118.153 L337.943,118.153 L337.943,137.933 C337.943,143.98 339.884,147.861 344.736,147.861 C348.468,147.861 350.856,145.323 351.752,142.934 C352.126,142.188 352.275,141.143 352.275,140.098 L352.275,118.153 L361.456,118.153 L361.456,143.606" fill="#1A1919"/>
      <path d="M368.396,128.976 C368.396,124.796 368.248,121.288 368.099,118.153 L375.936,118.153 L376.384,123.527 L376.607,123.527 C378.324,120.69 381.609,117.332 387.805,117.332 C392.582,117.332 396.314,120.019 397.881,124.05 L398.03,124.05 C399.3,122.034 400.792,120.542 402.435,119.496 C404.524,118.078 406.839,117.332 409.899,117.332 C415.87,117.332 421.991,121.437 421.991,133.082 L421.991,154.504 L413.034,154.504 L413.034,134.425 C413.034,128.379 410.944,124.796 406.54,124.796 C403.405,124.796 401.091,127.036 400.121,129.648 C399.822,130.469 399.673,131.664 399.673,132.708 L399.673,154.504 L390.716,154.504 L390.716,133.455 C390.716,128.379 388.7,124.796 384.445,124.796 C381.012,124.796 378.698,127.483 377.802,129.947 C377.504,130.917 377.354,131.961 377.354,133.007 L377.354,154.504 L368.396,154.504 L368.396,128.976" fill="#1A1919"/>
      <path d="M441.682,150.575 C441.682,152.052 441.749,153.497 441.95,154.504 L438.222,154.504 L437.92,152.691 L437.818,152.691 C436.845,153.967 435.132,154.874 432.982,154.874 C429.69,154.874 427.843,152.489 427.843,150.003 C427.843,145.906 431.504,143.79 437.55,143.823 L437.55,143.554 C437.55,142.479 437.113,140.699 434.225,140.699 C432.612,140.699 430.933,141.203 429.824,141.909 L429.019,139.221 C430.228,138.482 432.344,137.777 434.93,137.777 C440.17,137.777 441.682,141.102 441.682,144.696 L441.682,150.575 z M437.65,146.51 C434.729,146.476 431.94,147.082 431.94,149.567 C431.94,151.179 432.982,151.918 434.292,151.918 C435.972,151.918 437.147,150.843 437.55,149.667 C437.65,149.365 437.65,149.063 437.65,148.76 L437.65,146.51" fill="#1A1919"/>
      <path d="M446.048,143.017 C446.048,141.136 445.981,139.557 445.914,138.146 L449.508,138.146 L449.71,140.598 L449.811,140.598 C450.549,139.322 452.329,137.777 455.05,137.777 C457.905,137.777 460.861,139.625 460.861,144.797 L460.861,154.504 L456.73,154.504 L456.73,145.267 C456.73,142.916 455.856,141.136 453.605,141.136 C451.96,141.136 450.818,142.311 450.381,143.554 C450.247,143.89 450.18,144.394 450.18,144.864 L450.18,154.504 L446.048,154.504 L446.048,143.017" fill="#1A1919"/>
      <path d="M480.343,130.623 L480.343,149.903 C480.343,151.583 480.41,153.396 480.478,154.504 L476.816,154.504 L476.614,151.918 L476.547,151.918 C475.573,153.732 473.592,154.874 471.24,154.874 C467.311,154.874 464.22,151.548 464.22,146.51 C464.187,141.035 467.612,137.777 471.543,137.777 C473.793,137.777 475.405,138.684 476.145,139.893 L476.212,139.893 L476.212,130.623 L480.343,130.623 z M476.212,144.965 C476.212,144.629 476.178,144.193 476.11,143.857 C475.741,142.278 474.432,140.968 472.55,140.968 C469.896,140.968 468.419,143.319 468.419,146.342 C468.419,149.365 469.896,151.548 472.517,151.548 C474.196,151.548 475.674,150.407 476.077,148.626 C476.178,148.256 476.212,147.854 476.212,147.417 L476.212,144.965" fill="#1A1919"/>
      <path d="M487.859,104.194 L497.041,104.194 L497.041,146.816 L517.717,146.816 L517.717,154.504 L487.859,154.504 L487.859,104.194" fill="#1A1919"/>
      <path d="M527.346,112.928 C524.285,112.928 522.271,110.688 522.271,108.001 C522.271,105.165 524.36,103 527.421,103 C530.556,103 532.496,105.165 532.571,108.001 C532.571,110.688 530.556,112.928 527.421,112.928 L527.346,112.928 z M522.793,118.153 L531.974,118.153 L531.974,154.504 L522.793,154.504 z" fill="#1A1919"/>
      <path d="M538.916,101.433 L548.097,101.433 L548.097,123.154 L548.246,123.154 C550.485,119.646 554.441,117.332 559.891,117.332 C568.773,117.332 575.118,124.721 575.043,135.769 C575.043,148.832 566.758,155.326 558.547,155.326 C553.845,155.326 549.664,153.534 547.052,149.055 L546.902,149.055 L546.455,154.504 L538.617,154.504 C538.767,152.042 538.916,148.01 538.916,144.353 L538.916,101.433 z M548.097,139.5 C548.097,140.248 548.172,140.994 548.32,141.666 C549.291,145.398 552.501,148.085 556.457,148.085 C562.204,148.085 565.713,143.532 565.713,136.142 C565.713,129.722 562.652,124.498 556.531,124.498 C552.8,124.498 549.366,127.185 548.396,131.215 C548.246,131.887 548.097,132.708 548.097,133.604 L548.097,139.5" fill="#1A1919"/>
      <path d="M581.089,129.872 C581.089,124.945 581.014,121.362 580.79,118.153 L588.702,118.153 L589.076,125.02 L589.3,125.02 C591.091,119.944 595.346,117.332 599.302,117.332 C600.197,117.332 600.721,117.406 601.467,117.556 L601.467,126.14 C600.646,125.99 599.824,125.916 598.705,125.916 C594.375,125.916 591.315,128.677 590.494,132.858 C590.345,133.678 590.27,134.649 590.27,135.62 L590.27,154.504 L581.089,154.504 L581.089,129.872" fill="#1A1919"/>
      <path d="M634.384,145.771 C634.384,149.055 634.533,152.265 634.98,154.504 L626.695,154.504 L626.023,150.473 L625.8,150.473 C623.635,153.31 619.828,155.326 615.051,155.326 C607.735,155.326 603.631,150.026 603.631,144.502 C603.631,135.395 611.767,130.693 625.202,130.767 L625.202,130.17 C625.202,127.782 624.232,123.826 617.812,123.826 C614.23,123.826 610.498,124.945 608.034,126.513 L606.243,120.542 C608.93,118.899 613.633,117.332 619.38,117.332 C631.024,117.332 634.384,124.721 634.384,132.708 L634.384,145.771 z M625.427,136.739 C618.933,136.665 612.737,138.008 612.737,143.532 C612.737,147.115 615.051,148.756 617.962,148.756 C621.694,148.756 624.307,146.369 625.202,143.755 C625.427,143.084 625.427,142.412 625.427,141.741 L625.427,136.739" fill="#1A1919"/>
      <path d="M641.102,129.872 C641.102,124.945 641.026,121.362 640.803,118.153 L648.715,118.153 L649.088,125.02 L649.312,125.02 C651.104,119.944 655.358,117.332 659.314,117.332 C660.21,117.332 660.732,117.406 661.48,117.556 L661.48,126.14 C660.658,125.99 659.837,125.916 658.718,125.916 C654.388,125.916 651.327,128.677 650.507,132.858 C650.357,133.678 650.282,134.649 650.282,135.62 L650.282,154.504 L641.102,154.504 L641.102,129.872" fill="#1A1919"/>
      <path d="M673.645,118.153 L680.139,137.635 C680.885,139.875 681.706,142.636 682.228,144.651 L682.452,144.651 C682.975,142.636 683.646,139.875 684.393,137.56 L690.066,118.153 L699.845,118.153 L690.738,142.934 C685.736,156.52 682.378,162.566 678.123,166.298 C674.465,169.433 670.733,170.627 668.494,170.926 L666.404,163.238 C667.972,162.865 669.838,162.043 671.703,160.7 C673.42,159.581 675.511,157.416 676.779,154.953 C677.078,154.281 677.302,153.758 677.302,153.31 C677.302,152.937 677.228,152.415 676.854,151.519 L663.492,118.153 L673.645,118.153" fill="#1A1919"/>
      <path d="M224.897,106.318 C223.685,106.27 223.345,106.27 222.083,106.366 L221.792,106.075 C221.841,103.747 221.841,101.708 221.841,100.059 C221.841,99.04 221.841,87.056 221.501,80.36 L221.841,80.021 C222.957,80.069 223.345,80.069 224.655,79.972 L224.946,80.312 L224.946,81.379 C224.897,83.563 224.897,85.697 224.897,87.88 C224.897,94.964 225.043,100.496 225.188,106.027 L224.897,106.318" fill="#1A1919"/>
      <path d="M252.649,106.318 C252.213,106.318 251.728,106.27 251.242,106.27 C250.903,106.27 249.253,106.366 248.962,106.366 L248.574,106.172 C247.313,104.183 246.148,102.194 244.935,100.204 L234.94,83.126 L235.037,88.171 C235.134,100.156 235.183,101.515 235.329,105.978 L235.037,106.318 C234.019,106.318 233.63,106.318 232.611,106.366 L232.32,106.075 C232.32,105.348 232.32,89.336 232.223,85.648 C232.223,84.824 232.078,80.651 232.078,80.36 L232.369,80.021 C233.388,80.021 235.037,79.972 236.056,79.972 L236.444,80.215 C237.609,82.01 237.9,82.495 240.326,86.619 C241.878,89.288 243.431,91.907 245.032,94.527 L250.078,103.213 L250.078,98.215 C250.029,93.945 249.981,85.697 249.738,80.36 L250.029,80.021 C251.194,80.021 251.291,80.021 252.358,79.972 L252.698,80.263 C252.649,82.544 252.649,84.533 252.649,86.182 C252.649,92.926 252.698,99.67 252.989,106.027 L252.649,106.318" fill="#1A1919"/>
      <path d="M258.957,101.612 C260.315,103.698 263.081,104.474 265.07,104.474 C268.564,104.474 271.184,102.485 271.184,99.477 C271.184,97.39 269.922,96.274 268.127,95.352 C267.399,94.964 263.809,93.363 263.032,92.926 C260.995,91.956 258.035,90.355 258.035,86.474 C258.035,82.932 260.752,79.535 266.574,79.535 C268.952,79.535 271.28,80.166 273.367,81.379 L273.512,81.719 C273.318,82.835 273.318,82.932 273.173,83.999 L272.736,84.193 C271.62,83.223 269.825,81.962 266.817,81.962 C261.383,81.962 261.092,85.6 261.092,86.425 C261.092,88.56 262.887,89.627 265.216,90.694 L267.933,91.907 C270.456,92.975 274.289,94.673 274.289,99.331 C274.289,103.455 270.941,106.852 265.312,106.852 C261.626,106.852 259.491,105.542 258.278,104.814 L258.132,104.377 C258.181,103.989 258.278,103.601 258.375,103.213 C258.423,102.728 258.52,102.242 258.569,101.757 L258.957,101.612" fill="#1A1919"/>
      <path d="M287.534,106.27 C286.467,106.318 286.321,106.318 284.769,106.366 L284.478,106.075 C284.526,103.407 284.526,100.884 284.526,98.215 C284.526,94.867 284.526,85.212 284.478,82.495 C282.779,82.495 278.413,82.592 276.569,82.641 L276.278,82.301 C276.326,81.525 276.375,81.233 276.423,80.166 L276.812,79.923 C277.394,79.923 280.256,80.021 280.936,80.021 L289.669,80.021 C292.774,80.021 294.327,79.972 295.297,79.923 L295.637,80.215 C295.54,81.04 295.491,81.525 295.442,82.398 L295.103,82.641 C293.841,82.592 292.58,82.544 290.979,82.495 C290.445,82.495 287.825,82.446 287.534,82.446 C287.485,83.563 287.485,84.727 287.485,85.843 C287.485,88.269 287.534,90.743 287.583,93.217 C287.631,95.692 287.631,98.215 287.68,100.69 C287.68,101.466 287.825,105.153 287.825,105.978 L287.534,106.27" fill="#1A1919"/>
      <path d="M302.623,106.318 C301.41,106.27 301.071,106.27 299.809,106.366 L299.518,106.075 C299.566,103.747 299.566,101.708 299.566,100.059 C299.566,99.04 299.566,87.056 299.227,80.36 L299.566,80.021 C300.683,80.069 301.071,80.069 302.38,79.972 L302.672,80.312 L302.672,81.379 C302.623,83.563 302.623,85.697 302.623,87.88 C302.623,94.964 302.769,100.496 302.914,106.027 L302.623,106.318" fill="#1A1919"/>
      <path d="M317.809,106.27 C316.742,106.318 316.596,106.318 315.043,106.366 L314.752,106.075 C314.801,103.407 314.801,100.884 314.801,98.215 C314.801,94.867 314.801,85.212 314.752,82.495 C313.054,82.495 308.688,82.592 306.844,82.641 L306.553,82.301 C306.602,81.525 306.65,81.233 306.698,80.166 L307.086,79.923 C307.669,79.923 310.531,80.021 311.21,80.021 L319.944,80.021 C323.049,80.021 324.602,79.972 325.572,79.923 L325.912,80.215 C325.814,81.04 325.766,81.525 325.718,82.398 L325.378,82.641 C324.117,82.592 322.855,82.544 321.254,82.495 C320.72,82.495 318.1,82.446 317.809,82.446 C317.761,83.563 317.761,84.727 317.761,85.843 C317.761,88.269 317.809,90.743 317.857,93.217 C317.906,95.692 317.906,98.215 317.955,100.69 C317.955,101.466 318.1,105.153 318.1,105.978 L317.809,106.27" fill="#1A1919"/>
      <path d="M349.151,80.263 L349.151,80.845 C349.104,85.455 349.104,85.988 349.104,90.355 L349.104,95.207 C349.055,97.924 349.006,100.059 348.133,101.951 C346.629,105.299 343.087,106.852 339.206,106.852 C336.78,106.852 334.596,106.221 333.092,105.105 C329.745,102.679 329.793,98.7 329.793,95.74 L329.793,93.557 C329.793,90.646 329.793,83.029 329.745,80.36 L330.036,80.021 C331.443,80.021 331.491,80.021 332.898,79.972 L333.189,80.263 C333.044,84.921 332.947,89.53 332.947,94.188 C332.947,98.651 333.044,101.126 334.791,102.776 C335.761,103.649 337.411,104.28 339.594,104.28 C342.068,104.28 344.3,103.407 345.416,101.224 C346.241,99.573 346.289,97.487 346.289,93.557 C346.289,89.142 346.241,84.727 346.095,80.312 L346.386,80.021 C347.551,80.021 347.745,80.021 348.86,79.972 L349.151,80.263" fill="#1A1919"/>
      <path d="M364.289,106.27 C363.222,106.318 363.076,106.318 361.523,106.366 L361.232,106.075 C361.281,103.407 361.281,100.884 361.281,98.215 C361.281,94.867 361.281,85.212 361.232,82.495 C359.534,82.495 355.168,82.592 353.324,82.641 L353.033,82.301 C353.082,81.525 353.13,81.233 353.179,80.166 L353.566,79.923 C354.149,79.923 357.012,80.021 357.69,80.021 L366.424,80.021 C369.529,80.021 371.082,79.972 372.053,79.923 L372.392,80.215 C372.295,81.04 372.246,81.525 372.198,82.398 L371.858,82.641 C370.597,82.592 369.335,82.544 367.734,82.495 C367.2,82.495 364.58,82.446 364.289,82.446 C364.241,83.563 364.241,84.727 364.241,85.843 C364.241,88.269 364.289,90.743 364.338,93.217 C364.387,95.692 364.387,98.215 364.435,100.69 C364.435,101.466 364.58,105.153 364.58,105.978 L364.289,106.27" fill="#1A1919"/>
      <path d="M391.071,106.318 L379.767,106.318 C378.505,106.366 377.826,106.415 376.468,106.463 L376.177,106.124 L376.177,105.105 C376.225,103.552 376.225,101.951 376.225,100.398 C376.225,93.848 376.128,86.813 375.885,80.263 L376.225,79.972 C377.244,80.021 378.117,80.021 379.087,80.021 L385.638,80.021 C387.82,80.021 389.471,79.972 390.975,79.923 L391.314,80.215 C391.217,81.185 391.217,81.428 391.168,82.35 L390.829,82.641 C388.888,82.544 388.111,82.544 380.931,82.495 L379.136,82.446 C379.136,85.309 379.136,88.608 379.185,91.422 L382.483,91.422 C383.696,91.422 384.958,91.422 386.171,91.374 C388.694,91.374 388.888,91.374 390.489,91.325 L390.731,91.616 C390.635,92.587 390.635,92.684 390.635,93.654 L390.295,93.897 C388.549,93.8 387.384,93.8 382.387,93.848 L379.233,93.848 C379.233,95.595 379.33,103.116 379.379,103.843 L382.29,103.843 C385.734,103.843 386.269,103.843 391.266,103.698 L391.508,104.038 C391.411,104.959 391.411,105.056 391.411,106.075 L391.071,106.318" fill="#1A1919"/>
      <path d="M411.721,106.721 C407.422,106.721 405.138,104.336 405.138,100.137 C405.138,96.207 407.086,88.717 414.644,88.717 C419.312,88.717 421.159,91.706 421.159,95.3 C421.159,96.476 420.958,97.651 420.622,98.827 C420.186,100.44 418.438,106.721 411.721,106.721 z M418.977,95.132 C418.977,91.538 416.558,90.396 414.576,90.396 C408.261,90.396 407.287,98.458 407.287,100.204 C407.287,103.026 408.832,105.008 411.821,105.008 C412.964,105.008 414.14,104.84 415.349,103.866 C417.565,102.085 418.305,99.096 418.573,97.954 C418.809,97.013 418.977,96.073 418.977,95.132" fill="#1A1919"/>
      <path d="M429.355,90.799 C427.676,98.088 427.307,99.801 426.164,106.083 L425.896,106.318 L424.015,106.385 L423.814,106.184 L425.392,99.129 L427.206,90.799 L424.687,90.866 L424.484,90.665 L424.854,89.22 L425.123,89.019 L427.575,89.086 L428.079,86.601 C428.482,84.787 428.616,84.048 428.919,83.309 C429.423,81.932 430.396,80.151 433.554,80.151 C434.26,80.151 434.764,80.252 435.368,80.353 L435.569,80.622 L435.233,82.066 L434.965,82.268 C434.494,82.133 433.99,82.032 433.486,82.032 C432.815,82.032 432.144,82.234 431.707,82.67 C431.035,83.309 430.8,84.216 430.128,86.937 L429.691,89.086 L433.017,89.019 L433.218,89.288 L432.781,90.53 L432.546,90.799 L429.355,90.799" fill="#1A1919"/>
      <path d="M488.147,188.264 C489.506,190.35 492.272,191.126 494.261,191.126 C497.754,191.126 500.374,189.137 500.374,186.129 C500.374,184.042 499.112,182.927 497.317,182.005 C496.59,181.617 492.999,180.016 492.223,179.58 C490.185,178.609 487.226,177.007 487.226,173.126 C487.226,169.584 489.942,166.188 495.765,166.188 C498.142,166.188 500.471,166.819 502.557,168.032 L502.703,168.372 C502.509,169.488 502.509,169.584 502.363,170.652 L501.927,170.846 C500.811,169.876 499.016,168.614 496.007,168.614 C490.573,168.614 490.282,172.253 490.282,173.078 C490.282,175.212 492.077,176.28 494.406,177.347 L497.123,178.56 C499.646,179.627 503.479,181.326 503.479,185.984 C503.479,190.108 500.131,193.504 494.503,193.504 C490.815,193.504 488.681,192.194 487.468,191.466 L487.322,191.03 C487.371,190.641 487.468,190.253 487.565,189.865 C487.613,189.379 487.711,188.895 487.759,188.41 L488.147,188.264" fill="#1A1919"/>
      <path d="M525.749,192.97 L514.444,192.97 C513.183,193.019 512.503,193.067 511.145,193.116 L510.854,192.776 L510.854,191.757 C510.902,190.205 510.902,188.604 510.902,187.051 C510.902,180.501 510.806,173.466 510.562,166.916 L510.902,166.625 C511.921,166.673 512.795,166.673 513.765,166.673 L520.314,166.673 C522.498,166.673 524.147,166.625 525.651,166.577 L525.991,166.868 C525.895,167.837 525.895,168.081 525.846,169.002 L525.506,169.293 C523.565,169.197 522.789,169.197 515.608,169.148 L513.814,169.099 C513.814,171.961 513.814,175.261 513.862,178.075 L517.161,178.075 C518.374,178.075 519.636,178.075 520.849,178.027 C523.371,178.027 523.565,178.027 525.167,177.978 L525.409,178.269 C525.312,179.24 525.312,179.336 525.312,180.307 L524.973,180.549 C523.226,180.453 522.062,180.453 517.064,180.501 L513.91,180.501 C513.91,182.248 514.008,189.768 514.056,190.496 L516.967,190.496 C520.412,190.496 520.945,190.496 525.943,190.35 L526.186,190.69 C526.089,191.612 526.089,191.708 526.089,192.728 L525.749,192.97" fill="#1A1919"/>
      <path d="M533.657,166.77 C533.803,166.77 541.032,166.673 541.226,166.673 C543.264,166.673 545.253,166.77 546.951,167.499 C549.28,168.566 550.784,170.846 550.784,173.612 C550.784,177.59 547.63,180.404 543.312,180.938 L545.835,184.042 C548.892,187.779 549.426,188.41 552.87,192.583 L552.676,192.97 L550.59,192.97 C550.153,192.97 549.668,193.019 549.231,193.019 L548.844,192.825 C548.115,191.854 547.339,190.884 546.611,189.914 C545.593,188.604 544.525,187.342 543.506,186.081 C542.778,185.159 540.11,181.811 539.674,181.277 C538.412,181.326 538.072,181.326 536.714,181.326 C536.714,185.11 536.811,188.895 536.956,192.679 L536.665,192.97 C535.452,192.97 535.161,192.97 533.899,193.019 L533.608,192.728 C533.657,190.739 533.657,188.701 533.657,186.711 C533.657,180.162 533.608,173.612 533.317,167.061 L533.657,166.77 z M543.749,178.415 C545.011,178.075 547.63,177.056 547.63,173.708 C547.63,172.107 547,170.992 546.224,170.312 C544.962,169.197 543.022,169.099 540.449,169.099 C539.382,169.099 537.927,169.148 536.665,169.197 L536.665,178.9 C540.353,178.9 542.148,178.9 543.749,178.415" fill="#1A1919"/>
      <path d="M568.057,192.97 C566.358,192.97 565.97,192.97 564.515,193.019 L564.175,192.728 C563.398,190.544 562.282,186.954 561.555,184.722 L558.353,174.873 C557.916,173.563 557.48,172.253 557.043,170.943 C556.703,169.876 556.121,168.177 555.781,167.11 L555.976,166.77 C557.673,166.673 557.867,166.673 558.983,166.577 L559.323,166.819 C560.245,170.361 561.069,172.883 562.137,176.377 L566.504,190.205 L571.743,173.66 C572.52,171.186 572.665,170.749 573.781,166.868 L574.121,166.625 C575.334,166.673 575.625,166.673 576.789,166.625 L577.032,166.964 C576.401,168.759 576.158,169.439 573.976,175.747 L571.016,184.577 C569.899,187.924 569.754,188.41 568.348,192.679 L568.057,192.97" fill="#1A1919"/>
      <path d="M586.008,192.97 C584.795,192.921 584.455,192.921 583.194,193.019 L582.902,192.728 C582.951,190.399 582.951,188.361 582.951,186.711 C582.951,185.693 582.951,173.708 582.611,167.013 L582.951,166.673 C584.067,166.722 584.455,166.722 585.766,166.625 L586.057,166.964 L586.057,168.032 C586.008,170.215 586.008,172.35 586.008,174.534 C586.008,181.617 586.153,187.148 586.299,192.679 L586.008,192.97" fill="#1A1919"/>
      <path d="M614.391,188.41 C614.245,189.719 614.245,189.962 614.196,191.078 L614.003,191.466 C612.499,192.583 610.364,193.504 606.725,193.504 C604.59,193.504 601.048,193.212 597.991,190.35 C595.129,187.73 593.867,183.897 593.867,179.967 C593.867,172.496 598.477,166.139 607.016,166.139 C610.655,166.139 612.692,167.255 613.857,167.886 L614.1,168.226 C613.905,169.099 613.857,169.293 613.712,170.458 L613.323,170.701 C612.062,169.876 610.17,168.663 607.016,168.663 C600.127,168.663 597.069,174.388 597.069,179.822 C597.069,185.45 600.32,190.932 607.161,190.932 C610.752,190.932 612.401,189.574 614.003,188.215 L614.391,188.41" fill="#1A1919"/>
      <path d="M636.902,192.97 L625.598,192.97 C624.337,193.019 623.657,193.067 622.299,193.116 L622.008,192.776 L622.008,191.757 C622.057,190.205 622.057,188.604 622.057,187.051 C622.057,180.501 621.959,173.466 621.717,166.916 L622.057,166.625 C623.075,166.673 623.948,166.673 624.919,166.673 L631.469,166.673 C633.652,166.673 635.302,166.625 636.806,166.577 L637.146,166.868 C637.048,167.837 637.048,168.081 637,169.002 L636.66,169.293 C634.72,169.197 633.943,169.197 626.763,169.148 L624.967,169.099 C624.967,171.961 624.967,175.261 625.016,178.075 L628.315,178.075 C629.528,178.075 630.789,178.075 632.002,178.027 C634.525,178.027 634.72,178.027 636.32,177.978 L636.564,178.269 C636.466,179.24 636.466,179.336 636.466,180.307 L636.126,180.549 C634.38,180.453 633.215,180.453 628.218,180.501 L625.064,180.501 C625.064,182.248 625.161,189.768 625.21,190.496 L628.121,190.496 C631.565,190.496 632.1,190.496 637.097,190.35 L637.34,190.69 C637.242,191.612 637.242,191.708 637.242,192.728 L636.902,192.97" fill="#1A1919"/>
      <path d="M643.598,188.264 C644.957,190.35 647.722,191.126 649.711,191.126 C653.205,191.126 655.824,189.137 655.824,186.129 C655.824,184.042 654.564,182.927 652.768,182.005 C652.04,181.617 648.45,180.016 647.674,179.58 C645.636,178.609 642.676,177.007 642.676,173.126 C642.676,169.584 645.394,166.188 651.216,166.188 C653.593,166.188 655.922,166.819 658.008,168.032 L658.153,168.372 C657.959,169.488 657.959,169.584 657.814,170.652 L657.377,170.846 C656.262,169.876 654.466,168.614 651.458,168.614 C646.024,168.614 645.732,172.253 645.732,173.078 C645.732,175.212 647.528,176.28 649.856,177.347 L652.574,178.56 C655.097,179.627 658.93,181.326 658.93,185.984 C658.93,190.108 655.582,193.504 649.954,193.504 C646.267,193.504 644.132,192.194 642.919,191.466 L642.773,191.03 C642.821,190.641 642.919,190.253 643.016,189.865 C643.064,189.379 643.161,188.895 643.21,188.41 L643.598,188.264" fill="#1A1919"/>
    </g>
  </g>
</svg>
