<?xml version="1.0" encoding="UTF-8"?>
<!DOCTYPE svg PUBLIC "-//W3C//DTD SVG 1.1//EN" "http://www.w3.org/Graphics/SVG/1.1/DTD/svg11.dtd">
<svg version="1.1" xmlns="http://www.w3.org/2000/svg" xmlns:xlink="http://www.w3.org/1999/xlink" x="0" y="0" width="304.062" height="72" viewBox="0, 0, 304.062, 72">
  <g id="Background">
    <rect x="0" y="0" width="304.062" height="72" fill="#000000" fill-opacity="0"/>
  </g>
  <g id="Layer_1">
    <g>
      <path d="M10.634,45.07 L10.634,70.996 L1,70.996 L1,7.153 L11.916,7.153 C17.264,7.153 21.302,7.526 24.031,8.27 C26.788,9.014 29.214,10.42 31.309,12.487 C34.975,16.071 36.808,20.592 36.808,26.05 C36.808,31.894 34.851,36.525 30.937,39.943 C27.022,43.361 21.743,45.07 15.1,45.07 L10.634,45.07 M10.634,36.139 L14.232,36.139 C23.08,36.139 27.505,32.735 27.505,25.926 C27.505,19.338 22.942,16.043 13.818,16.043 L10.634,16.043 L10.634,36.139 M77.597,51.893 L48.735,51.893 C48.983,55.201 50.058,57.833 51.96,59.791 C53.862,61.72 56.302,62.685 59.279,62.685 C61.594,62.685 63.51,62.134 65.026,61.031 C66.515,59.928 68.21,57.888 70.112,54.911 L77.969,59.294 C76.756,61.362 75.474,63.14 74.123,64.628 C72.772,66.089 71.325,67.302 69.782,68.267 C68.238,69.204 66.57,69.893 64.778,70.334 C62.987,70.776 61.043,70.996 58.948,70.996 C52.939,70.996 48.115,69.066 44.476,65.207 C40.837,61.32 39.018,56.166 39.018,49.743 C39.018,43.375 40.782,38.22 44.311,34.278 C47.867,30.391 52.58,28.448 58.452,28.448 C64.379,28.448 69.065,30.336 72.511,34.113 C75.929,37.862 77.638,43.058 77.638,49.701 L77.597,51.893 M68.045,44.285 C66.749,39.323 63.621,36.842 58.659,36.842 C57.528,36.842 56.467,37.021 55.475,37.379 C54.482,37.71 53.573,38.206 52.746,38.868 C51.946,39.502 51.257,40.274 50.678,41.183 C50.099,42.093 49.658,43.127 49.355,44.285 L68.045,44.285 M85.557,30.722 L94.861,30.722 L94.861,34.32 C96.57,32.528 98.086,31.301 99.409,30.64 C100.76,29.95 102.358,29.606 104.205,29.606 C106.659,29.606 109.222,30.405 111.896,32.004 L107.637,40.522 C105.873,39.254 104.15,38.62 102.469,38.62 C97.397,38.62 94.86,42.452 94.861,50.115 L94.861,70.996 L85.557,70.996 L85.557,30.722 M126.616,30.722 L126.616,70.996 L117.313,70.996 L117.313,30.722 L126.616,30.722 M115.907,13.976 C115.907,12.35 116.5,10.944 117.685,9.758 C118.87,8.573 120.29,7.98 121.944,7.98 C123.626,7.98 125.059,8.573 126.244,9.758 C127.43,10.916 128.022,12.336 128.022,14.017 C128.022,15.699 127.43,17.132 126.244,18.318 C125.087,19.503 123.667,20.096 121.985,20.096 C120.304,20.096 118.87,19.503 117.685,18.318 C116.5,17.132 115.907,15.685 115.907,13.976 M134.547,49.412 C134.547,43.596 136.628,38.647 140.79,34.568 C144.953,30.488 150.025,28.448 156.007,28.448 C162.016,28.448 167.116,30.502 171.306,34.609 C175.441,38.716 177.508,43.761 177.508,49.743 C177.508,55.78 175.427,60.838 171.265,64.918 C167.075,68.97 161.934,70.996 155.841,70.996 C149.805,70.996 144.746,68.929 140.666,64.794 C136.587,60.714 134.547,55.587 134.547,49.412 M144.057,49.577 C144.057,53.602 145.132,56.786 147.282,59.129 C149.488,61.5 152.396,62.685 156.007,62.685 C159.646,62.685 162.554,61.513 164.731,59.17 C166.909,56.827 167.998,53.698 167.998,49.784 C167.998,45.87 166.909,42.741 164.731,40.398 C162.526,38.027 159.618,36.842 156.007,36.842 C152.451,36.842 149.57,38.027 147.365,40.398 C145.16,42.769 144.057,45.828 144.057,49.577 M216.132,-0 L225.477,-0 L225.477,70.997 L216.132,71 L216.132,65.621 C212.466,69.205 208.317,70.996 203.686,70.996 C198.173,70.996 193.597,68.984 189.959,64.959 C186.347,60.852 184.542,55.725 184.542,49.578 C184.542,43.568 186.347,38.551 189.959,34.527 C193.542,30.474 198.049,28.448 203.48,28.448 C208.193,28.448 212.411,30.378 216.132,34.237 L216.132,0 M194.052,49.578 C194.052,53.437 195.086,56.579 197.153,59.005 C199.276,61.459 201.95,62.685 205.175,62.685 C208.621,62.685 211.405,61.5 213.527,59.129 C215.65,56.676 216.711,53.561 216.711,49.784 C216.711,46.008 215.65,42.893 213.527,40.44 C211.405,38.041 208.648,36.842 205.258,36.842 C202.06,36.842 199.386,38.055 197.236,40.481 C195.113,42.934 194.052,45.967 194.052,49.578" fill="#FFFFFF"/>
      <path d="M10.634,45.07 L10.634,70.996 L1,70.996 L1,7.153 L11.916,7.153 C17.264,7.153 21.302,7.526 24.031,8.27 C26.788,9.014 29.214,10.42 31.309,12.487 C34.975,16.071 36.808,20.592 36.808,26.05 C36.808,31.894 34.851,36.525 30.937,39.943 C27.022,43.361 21.743,45.07 15.1,45.07 L10.634,45.07 M10.634,36.139 L14.232,36.139 C23.08,36.139 27.505,32.735 27.505,25.926 C27.505,19.338 22.942,16.043 13.818,16.043 L10.634,16.043 L10.634,36.139 M77.597,51.893 L48.735,51.893 C48.983,55.201 50.058,57.833 51.96,59.791 C53.862,61.72 56.302,62.685 59.279,62.685 C61.594,62.685 63.51,62.134 65.026,61.031 C66.515,59.928 68.21,57.888 70.112,54.911 L77.969,59.294 C76.756,61.362 75.474,63.14 74.123,64.628 C72.772,66.089 71.325,67.302 69.782,68.267 C68.238,69.204 66.57,69.893 64.778,70.334 C62.987,70.776 61.043,70.996 58.948,70.996 C52.939,70.996 48.115,69.066 44.476,65.207 C40.837,61.32 39.018,56.166 39.018,49.743 C39.018,43.375 40.782,38.22 44.311,34.278 C47.867,30.391 52.58,28.448 58.452,28.448 C64.379,28.448 69.065,30.336 72.511,34.113 C75.929,37.862 77.638,43.058 77.638,49.701 L77.597,51.893 M68.045,44.285 C66.749,39.323 63.621,36.842 58.659,36.842 C57.528,36.842 56.467,37.021 55.475,37.379 C54.482,37.71 53.573,38.206 52.746,38.868 C51.946,39.502 51.257,40.274 50.678,41.183 C50.099,42.093 49.658,43.127 49.355,44.285 L68.045,44.285 M85.557,30.722 L94.861,30.722 L94.861,34.32 C96.57,32.528 98.086,31.301 99.409,30.64 C100.76,29.95 102.358,29.606 104.205,29.606 C106.659,29.606 109.222,30.405 111.896,32.004 L107.637,40.522 C105.873,39.254 104.15,38.62 102.469,38.62 C97.397,38.62 94.86,42.452 94.861,50.115 L94.861,70.996 L85.557,70.996 L85.557,30.722 M126.616,30.722 L126.616,70.996 L117.313,70.996 L117.313,30.722 L126.616,30.722 M115.907,13.976 C115.907,12.35 116.5,10.944 117.685,9.758 C118.87,8.573 120.29,7.98 121.944,7.98 C123.626,7.98 125.059,8.573 126.244,9.758 C127.43,10.916 128.022,12.336 128.022,14.017 C128.022,15.699 127.43,17.132 126.244,18.318 C125.087,19.503 123.667,20.096 121.985,20.096 C120.304,20.096 118.87,19.503 117.685,18.318 C116.5,17.132 115.907,15.685 115.907,13.976 M134.547,49.412 C134.547,43.596 136.628,38.647 140.79,34.568 C144.953,30.488 150.025,28.448 156.007,28.448 C162.016,28.448 167.116,30.502 171.306,34.609 C175.441,38.716 177.508,43.761 177.508,49.743 C177.508,55.78 175.427,60.838 171.265,64.918 C167.075,68.97 161.934,70.996 155.841,70.996 C149.805,70.996 144.746,68.929 140.666,64.794 C136.587,60.714 134.547,55.587 134.547,49.412 M144.057,49.577 C144.057,53.602 145.132,56.786 147.282,59.129 C149.488,61.5 152.396,62.685 156.007,62.685 C159.646,62.685 162.554,61.513 164.731,59.17 C166.909,56.827 167.998,53.698 167.998,49.784 C167.998,45.87 166.909,42.741 164.731,40.398 C162.526,38.027 159.618,36.842 156.007,36.842 C152.451,36.842 149.57,38.027 147.365,40.398 C145.16,42.769 144.057,45.828 144.057,49.577 M216.132,-0 L225.477,-0 L225.477,70.997 L216.132,71 L216.132,65.621 C212.466,69.205 208.317,70.996 203.686,70.996 C198.173,70.996 193.597,68.984 189.959,64.959 C186.347,60.852 184.542,55.725 184.542,49.578 C184.542,43.568 186.347,38.551 189.959,34.527 C193.542,30.474 198.049,28.448 203.48,28.448 C208.193,28.448 212.411,30.378 216.132,34.237 L216.132,0 M194.052,49.578 C194.052,53.437 195.086,56.579 197.153,59.005 C199.276,61.459 201.95,62.685 205.175,62.685 C208.621,62.685 211.405,61.5 213.527,59.129 C215.65,56.676 216.711,53.561 216.711,49.784 C216.711,46.008 215.65,42.893 213.527,40.44 C211.405,38.041 208.648,36.842 205.258,36.842 C202.06,36.842 199.386,38.055 197.236,40.481 C195.113,42.934 194.052,45.967 194.052,49.578" fill-opacity="0" stroke="#FFFFFF" stroke-width="0.895"/>
    </g>
    <g>
      <g>
        <path d="M235.382,37.705 C235.382,46.818 238.722,54.646 245.404,61.188 C252.057,67.729 260.053,71 269.39,71 C278.615,71 286.527,67.701 293.124,61.104 C299.75,54.506 303.062,46.581 303.062,37.327 C303.062,28.018 299.736,20.121 293.082,13.635 C286.401,7.121 278.336,3.864 268.887,3.864 C260.528,3.864 253.022,6.758 246.368,12.545 C239.044,18.946 235.382,27.333 235.382,37.705 M245.236,37.579 C245.236,30.422 247.64,24.538 252.449,19.925 C257.229,15.312 262.75,13.006 269.012,13.006 C275.806,13.006 281.536,15.354 286.205,20.051 C290.874,24.803 293.208,30.59 293.208,37.411 C293.208,44.316 290.902,50.103 286.289,54.772 C281.704,59.468 276.029,61.816 269.264,61.817 C262.527,61.816 256.838,59.468 252.197,54.772 C247.556,50.131 245.236,44.4 245.236,37.579" fill="#FFFFFF"/>
        <path d="M235.382,37.705 C235.382,46.818 238.722,54.646 245.404,61.188 C252.057,67.729 260.053,71 269.39,71 C278.615,71 286.527,67.701 293.124,61.104 C299.75,54.506 303.062,46.581 303.062,37.327 C303.062,28.018 299.736,20.121 293.082,13.635 C286.401,7.121 278.336,3.864 268.887,3.864 C260.528,3.864 253.022,6.758 246.368,12.545 C239.044,18.946 235.382,27.333 235.382,37.705 M245.236,37.579 C245.236,30.422 247.64,24.538 252.449,19.925 C257.229,15.312 262.75,13.006 269.012,13.006 C275.806,13.006 281.536,15.354 286.205,20.051 C290.874,24.803 293.208,30.59 293.208,37.411 C293.208,44.316 290.902,50.103 286.289,54.772 C281.704,59.468 276.029,61.816 269.264,61.817 C262.527,61.816 256.838,59.468 252.197,54.772 C247.556,50.131 245.236,44.4 245.236,37.579" fill-opacity="0" stroke="#FFFFFF" stroke-width="0.895"/>
      </g>
      <g>
        <path d="M245.14,37.41 L247.903,37.41" fill="#FFFFFF"/>
        <path d="M245.14,37.41 L247.903,37.41" fill-opacity="0" stroke="#FFFFFF" stroke-width="0.895"/>
      </g>
      <g>
        <path d="M269.051,14.372 L266.257,22.023 L269.051,35.077 L271.845,22.023 z" fill="#FFFFFF"/>
        <path d="M269.051,14.372 L266.257,22.023 L269.051,35.077 L271.845,22.023 z" fill-opacity="0" stroke="#FFFFFF" stroke-width="0.895"/>
      </g>
      <g>
        <path d="M269.553,37.298 C269.553,37.021 269.329,36.796 269.051,36.796 C268.774,36.796 268.549,37.021 268.549,37.298 C268.549,37.575 268.774,37.8 269.051,37.8 C269.329,37.8 269.553,37.575 269.553,37.298 z" fill="#FFFFFF"/>
        <path d="M269.553,37.298 C269.553,37.021 269.329,36.796 269.051,36.796 C268.774,36.796 268.549,37.021 268.549,37.298 C268.549,37.575 268.774,37.8 269.051,37.8 C269.329,37.8 269.553,37.575 269.553,37.298 z" fill-opacity="0" stroke="#FFFFFF" stroke-width="0.895"/>
      </g>
      <g>
        <path d="M272.39,23.311 L271.076,29.459 L283.722,49.668 z" fill="#FFFFFF"/>
        <path d="M272.39,23.311 L271.076,29.459 L283.722,49.668 z" fill-opacity="0" stroke="#FFFFFF" stroke-width="0.895"/>
      </g>
      <g>
        <path d="M245.821,43.45 L248.49,42.735 M247.939,49.403 L250.332,48.021 M290.472,37.41 L293.235,37.41 M292.486,43.706 L289.817,42.991 M290.241,49.594 L287.848,48.213 M284.491,52.652 L286.445,54.606 M253.943,52.652 L251.99,54.606 M257.005,58.656 L258.387,56.264 M281.31,58.72 L279.929,56.327 M269.058,59.075 L269.058,61.838 M274.703,58.548 L275.418,61.217 M263.477,58.356 L262.762,61.025" fill="#FFFFFF"/>
        <path d="M245.821,43.45 L248.49,42.735 M247.939,49.403 L250.332,48.021 M290.472,37.41 L293.235,37.41 M292.486,43.706 L289.817,42.991 M290.241,49.594 L287.848,48.213 M284.491,52.652 L286.445,54.606 M253.943,52.652 L251.99,54.606 M257.005,58.656 L258.387,56.264 M281.31,58.72 L279.929,56.327 M269.058,59.075 L269.058,61.838 M274.703,58.548 L275.418,61.217 M263.477,58.356 L262.762,61.025" fill-opacity="0" stroke="#FFFFFF" stroke-width="0.895"/>
      </g>
    </g>
  </g>
</svg>
