<?xml version="1.0" encoding="UTF-8" standalone="no"?>
<!-- Created with Inkscape (http://www.inkscape.org/) -->

<svg
   xmlns:dc="http://purl.org/dc/elements/1.1/"
   xmlns:cc="http://creativecommons.org/ns#"
   xmlns:rdf="http://www.w3.org/1999/02/22-rdf-syntax-ns#"
   xmlns:svg="http://www.w3.org/2000/svg"
   xmlns="http://www.w3.org/2000/svg"
   xmlns:sodipodi="http://sodipodi.sourceforge.net/DTD/sodipodi-0.dtd"
   xmlns:inkscape="http://www.inkscape.org/namespaces/inkscape"
   width="304.06244"
   height="72"
   id="svg2"
   version="1.1"
   inkscape:version="0.48.2 r9819"
   sodipodi:docname="source.svg"
   inkscape:export-filename="/Users/ryanshaw/Code/periodo-website/images/logo.png"
   inkscape:export-xdpi="89.981522"
   inkscape:export-ydpi="89.981522">
  <defs
     id="defs4" />
  <sodipodi:namedview
     id="base"
     pagecolor="#ffffff"
     bordercolor="#666666"
     borderopacity="1.0"
     inkscape:pageopacity="0.0"
     inkscape:pageshadow="2"
     inkscape:zoom="4.4267224"
     inkscape:cx="196.98547"
     inkscape:cy="36"
     inkscape:document-units="px"
     inkscape:current-layer="layer2"
     showgrid="false"
     showborder="true"
     inkscape:showpageshadow="false"
     showguides="false"
     inkscape:window-width="1730"
     inkscape:window-height="928"
     inkscape:window-x="60"
     inkscape:window-y="46"
     inkscape:window-maximized="0"
     fit-margin-left="2.7755576e-17"
     fit-margin-top="0"
     fit-margin-bottom="0"
     fit-margin-right="0" />
  <metadata
     id="metadata7">
    <rdf:RDF>
      <cc:Work
         rdf:about="">
        <dc:format>image/svg+xml</dc:format>
        <dc:type
           rdf:resource="http://purl.org/dc/dcmitype/StillImage" />
        <dc:title></dc:title>
      </cc:Work>
    </rdf:RDF>
  </metadata>
  <g
     inkscape:label="Period"
     inkscape:groupmode="layer"
     id="layer1"
     transform="translate(196.76401,-182.33093)"
     style="display:inline"
     sodipodi:insensitive="true" />
  <g
     inkscape:groupmode="layer"
     id="layer2"
     inkscape:label="O"
     style="display:inline"
     transform="translate(-0.5,-49.22656)"
     sodipodi:insensitive="true">
    <path
       inkscape:connector-curvature="0"
       id="path3020"
       style="font-size:144px;font-style:normal;font-variant:normal;font-weight:500;font-stretch:normal;text-align:start;line-height:125%;letter-spacing:0px;word-spacing:0px;writing-mode:lr-tb;text-anchor:start;fill:#000000;fill-opacity:1;stroke:none;font-family:Futura;-inkscape-font-specification:Futura Medium"
       d="m 10.270526,94.934192 0,26.292368 -9.77052897,0 0,-64.745489 11.07047197,0 c 5.423389,6.6e-5 9.5189,0.377467 12.286545,1.132209 2.795544,0.754867 5.255643,2.180607 7.380315,4.277231 3.718074,3.634299 5.577126,8.219034 5.577174,13.754222 -4.8e-5,5.926652 -1.984902,10.62321 -5.954575,14.089692 -3.969745,3.466535 -9.323267,5.199791 -16.060573,5.199767 l -4.528829,0 m 0,-9.057659 3.648225,0 c 8.973765,3e-5 13.460656,-3.452496 13.460686,-10.357602 -3e-5,-6.681371 -4.626703,-10.02208 -13.880019,-10.022133 l -3.228892,0 0,20.379735" />
    <path
       inkscape:connector-curvature="0"
       id="path3022"
       style="font-size:144px;font-style:normal;font-variant:normal;font-weight:500;font-stretch:normal;text-align:start;line-height:125%;letter-spacing:0px;word-spacing:0px;writing-mode:lr-tb;text-anchor:start;fill:#000000;fill-opacity:1;stroke:none;font-family:Futura;-inkscape-font-specification:Futura Medium"
       d="m 78.179673,101.85324 -29.269655,0 c 0.251587,3.3547 1.341858,6.02447 3.270819,8.00932 1.92893,1.9569 4.403009,2.93535 7.422249,2.93535 2.348255,0 4.291177,-0.55911 5.828771,-1.67735 1.509578,-1.11822 3.228855,-3.18694 5.157834,-6.20617 l 7.967385,4.44496 c -1.230095,2.09669 -2.530035,3.89983 -3.899826,5.40944 -1.369869,1.48165 -2.837544,2.71171 -4.403028,3.69015 -1.565555,0.9505 -3.256875,1.64939 -5.073967,2.09668 -1.81715,0.44729 -3.788028,0.67094 -5.912638,0.67094 -6.094371,0 -10.986616,-1.9569 -14.676762,-5.87071 -3.690163,-3.94175 -5.535242,-9.16946 -5.535236,-15.683161 -6e-6,-6.457749 1.789162,-11.685468 5.367502,-15.683172 3.606275,-3.94172 8.386703,-5.912595 14.341293,-5.912637 6.010454,4.2e-5 10.762924,1.915006 14.257426,5.744903 3.46647,3.802016 5.199724,9.071668 5.199767,15.808974 l -0.04193,2.222483 m -9.686663,-7.715787 c -1.313951,-5.032003 -4.486924,-7.548019 -9.518928,-7.548049 -1.146212,3e-5 -2.222504,0.181743 -3.228892,0.545135 -1.006425,0.335499 -1.928961,0.838702 -2.767615,1.50961 -0.810732,0.643015 -1.509628,1.425775 -2.096684,2.348282 -0.587085,0.922566 -1.034371,1.970905 -1.341875,3.145022 l 18.953994,0" />
    <path
       inkscape:connector-curvature="0"
       id="path3024"
       style="font-size:144px;font-style:normal;font-variant:normal;font-weight:500;font-stretch:normal;text-align:start;line-height:125%;letter-spacing:0px;word-spacing:0px;writing-mode:lr-tb;text-anchor:start;fill:#000000;fill-opacity:1;stroke:none;font-family:Futura;-inkscape-font-specification:Futura Medium"
       d="m 86.25273,80.383229 9.435061,0 0,3.648225 c 1.733239,-1.817084 3.270803,-3.061115 4.612699,-3.732095 1.36981,-0.698849 2.99124,-1.048297 4.8643,-1.048339 2.48803,4.2e-5 5.08791,0.810756 7.79965,2.432153 l -4.31916,8.638319 c -1.7892,-1.285934 -3.53643,-1.928913 -5.24171,-1.928943 -5.143869,3e-5 -7.715794,3.885875 -7.715779,11.657541 l 0,21.17647 -9.435061,0 0,-40.843331" />
    <path
       inkscape:connector-curvature="0"
       id="path3026"
       style="font-size:144px;font-style:normal;font-variant:normal;font-weight:500;font-stretch:normal;text-align:start;line-height:125%;letter-spacing:0px;word-spacing:0px;writing-mode:lr-tb;text-anchor:start;fill:#000000;fill-opacity:1;stroke:none;font-family:Futura;-inkscape-font-specification:Futura Medium"
       d="m 127.8928,80.383229 0,40.843331 -9.43506,0 0,-40.843331 9.43506,0 M 117.032,63.40012 c -1e-5,-1.649331 0.60104,-3.075071 1.80314,-4.27723 1.20209,-1.202034 2.64181,-1.803081 4.31916,-1.803147 1.70529,6.6e-5 3.15899,0.601113 4.3611,1.803147 1.20208,1.1742 1.80313,2.613919 1.80314,4.319163 -1e-5,1.705356 -0.60106,3.159049 -1.80314,4.361095 -1.17416,1.202147 -2.61388,1.803194 -4.31916,1.803146 -1.70531,4.8e-5 -3.15901,-0.600999 -4.3611,-1.803146 -1.2021,-1.202046 -1.80315,-2.669718 -1.80314,-4.403028" />
    <path
       inkscape:connector-curvature="0"
       id="path3028"
       style="font-size:144px;font-style:normal;font-variant:normal;font-weight:500;font-stretch:normal;text-align:start;line-height:125%;letter-spacing:0px;word-spacing:0px;writing-mode:lr-tb;text-anchor:start;fill:#000000;fill-opacity:1;stroke:none;font-family:Futura;-inkscape-font-specification:Futura Medium"
       d="m 135.9353,99.33722 c -1e-5,-5.898634 2.11065,-10.916687 6.33197,-15.054166 4.2213,-4.137407 9.36515,-6.206132 15.43157,-6.206174 6.09432,4.2e-5 11.26612,2.08274 15.51543,6.248106 4.19332,4.165438 6.28999,9.281335 6.29004,15.347703 -5e-5,6.122321 -2.1107,11.252191 -6.33197,15.389631 -4.24931,4.10949 -9.46305,6.16424 -15.64123,6.16424 -6.12233,0 -11.2522,-2.09668 -15.38964,-6.29004 -4.13745,-4.13744 -6.20618,-9.3372 -6.20617,-15.5993 m 9.64473,0.167734 c -2e-5,4.081556 1.09026,7.310436 3.27082,9.686666 2.23644,2.4042 5.18577,3.60629 8.84799,3.60629 3.69013,0 6.63946,-1.18811 8.84799,-3.56436 2.20847,-2.37623 3.31272,-5.5492 3.31276,-9.518929 -4e-5,-3.969691 -1.10429,-7.142666 -3.31276,-9.51893 -2.23649,-2.404158 -5.18582,-3.606257 -8.84799,-3.606287 -3.60631,3e-5 -6.52768,1.202129 -8.76412,3.606287 -2.23648,2.404223 -3.35471,5.507307 -3.35469,9.309263" />
    <path
       inkscape:connector-curvature="0"
       id="path3030"
       style="font-size:144px;font-style:normal;font-variant:normal;font-weight:500;font-stretch:normal;text-align:start;line-height:125%;letter-spacing:0px;word-spacing:0px;writing-mode:lr-tb;text-anchor:start;fill:#000000;fill-opacity:1;stroke:none;font-family:Futura;-inkscape-font-specification:Futura Medium"
       d="m 218.67458,49.22656 9.477,0 0,72.00101 -9.477,0.003 0,-5.45508 c -3.71815,3.63425 -7.92548,5.45137 -12.62201,5.45137 -5.59117,0 -10.23182,-2.04077 -13.92196,-6.1223 -3.66221,-4.1654 -5.49331,-9.36516 -5.49331,-15.599306 0,-6.094326 1.8311,-11.182265 5.49331,-15.263832 3.63423,-4.109455 8.20499,-6.1642 13.71229,-6.164242 4.7804,4.2e-5 9.05762,1.956944 12.83168,5.870705 l 0,-34.721025 m -22.39254,50.278394 c -2e-5,3.913826 1.04832,7.100766 3.14501,9.560866 2.15258,2.48807 4.86428,3.73209 8.13513,3.73209 3.49443,0 6.31796,-1.20209 8.47058,-3.60629 2.15256,-2.48805 3.22885,-5.64705 3.22889,-9.476999 -4e-5,-3.829909 -1.07633,-6.988904 -3.22889,-9.476992 -2.15262,-2.432122 -4.94819,-3.648195 -8.38672,-3.648225 -3.24288,3e-5 -5.95459,1.230082 -8.13512,3.690157 -2.1526,2.488088 -3.2289,5.563213 -3.22888,9.225393"
       sodipodi:nodetypes="cccccscsccccccscccccc" />
    <g
       transform="matrix(0.59638906,0,0,-0.59638906,117.8479,205.77104)"
       id="g3041"
       inkscape:export-filename="/Users/ryanshaw/Code/periodo-website/images/sundial.png"
       inkscape:export-xdpi="132.97707"
       inkscape:export-ydpi="132.97707">
      <path
         d="m 199.59067,197.58875 c -10e-6,-15.28118 5.60155,-28.40617 16.80469,-39.375 11.15621,-10.96865 24.56245,-16.45302 40.21875,-16.45313 15.46867,1.1e-4 28.73428,5.53136 39.79687,16.59375 11.10926,11.06258 16.66394,24.35163 16.66406,39.86719 -1.2e-4,15.60941 -5.57824,28.85159 -16.73437,39.72656 -11.20322,10.92188 -24.72664,16.38281 -40.57031,16.38281 -14.01568,0 -26.6016,-4.85156 -37.75782,-14.55468 -12.28126,-10.73436 -18.42188,-24.79684 -18.42187,-42.1875 m 16.52344,0.21093 c -3e-5,12.00005 4.03122,21.86722 12.09375,29.60157 8.01558,7.73439 17.27338,11.60157 27.77343,11.60156 11.39055,1e-5 20.99992,-3.93749 28.82813,-11.8125 7.82802,-7.96872 11.74208,-17.67183 11.74219,-29.10938 -1.1e-4,-11.57806 -3.86729,-21.28117 -11.60157,-29.10937 -7.68758,-7.87491 -17.2032,-11.81241 -28.54687,-11.8125 -11.29693,9e-5 -20.83598,3.93759 -28.61719,11.8125 -7.78128,7.78132 -11.6719,17.39069 -11.67187,28.82812"
         style="font-size:144px;font-style:normal;font-variant:normal;font-weight:500;font-stretch:normal;text-align:start;line-height:125%;letter-spacing:0px;word-spacing:0px;writing-mode:lr-tb;text-anchor:start;fill:#000000;fill-opacity:1;stroke:none;font-family:Futura;-inkscape-font-specification:Futura Medium"
         id="path3032"
         inkscape:connector-curvature="0" />
      <path
         sodipodi:nodetypes="cc"
         inkscape:connector-curvature="0"
         id="path3796"
         d="m 215.953,198.0833 4.63279,0"
         style="fill:none;stroke:#000000;stroke-width:1.5;stroke-linecap:butt;stroke-linejoin:miter;stroke-miterlimit:4;stroke-opacity:1;stroke-dasharray:none" />
      <path
         sodipodi:nodetypes="ccccc"
         inkscape:connector-curvature="0"
         id="path2989"
         d="m 256.04651,236.71218 -4.68471,-12.82968 4.68471,-21.8882 4.68472,21.8882 z"
         style="color:#000000;fill:none;stroke:#000000;stroke-width:1.5;stroke-miterlimit:10;stroke-opacity:1;stroke-dasharray:none;marker:none;visibility:visible;display:inline;overflow:visible;enable-background:accumulate" />
      <path
         transform="translate(3.4315046,2.6103535)"
         d="m 253.45706,195.66048 a 0.84205002,0.84205002 0 1 1 -1.6841,0 0.84205002,0.84205002 0 1 1 1.6841,0 z"
         sodipodi:ry="0.84205002"
         sodipodi:rx="0.84205002"
         sodipodi:cy="195.66048"
         sodipodi:cx="252.61501"
         id="path3762"
         style="color:#000000;fill:#000000;fill-opacity:1;stroke:#000000;stroke-width:2;stroke-linecap:butt;stroke-miterlimit:10;stroke-opacity:1;stroke-dasharray:none;stroke-dashoffset:0;marker:none;visibility:visible;display:inline;overflow:visible;enable-background:accumulate"
         sodipodi:type="arc" />
      <path
         sodipodi:nodetypes="cccc"
         inkscape:connector-curvature="0"
         id="path3766"
         d="m 261.64464,221.724 -2.20273,-10.30875 21.20353,-33.88601 z"
         inkscape:transform-center-y="0.34799024"
         inkscape:transform-center-x="-2.1359106"
         style="color:#000000;fill:#000000;fill-opacity:1;stroke:#000000;stroke-width:1.5;stroke-linecap:butt;stroke-miterlimit:20;stroke-opacity:1;stroke-dasharray:none;stroke-dashoffset:0;marker:none;visibility:visible;display:inline;overflow:visible;enable-background:accumulate" />
      <path
         inkscape:transform-center-y="4.7109913"
         style="fill:none;stroke:#000000;stroke-width:1.5;stroke-linecap:butt;stroke-linejoin:miter;stroke-miterlimit:4;stroke-opacity:1;stroke-dasharray:none"
         d="m 217.09568,187.95472 4.47493,1.19906"
         id="path3818"
         inkscape:connector-curvature="0"
         sodipodi:nodetypes="cc" />
      <path
         style="fill:none;stroke:#000000;stroke-width:1.5;stroke-linecap:butt;stroke-linejoin:miter;stroke-miterlimit:4;stroke-opacity:1;stroke-dasharray:none"
         d="m 220.6462,177.97407 4.01211,2.3164"
         id="path3820"
         inkscape:connector-curvature="0"
         sodipodi:nodetypes="cc" />
      <path
         style="fill:none;stroke:#000000;stroke-width:1.5;stroke-linecap:butt;stroke-linejoin:miter;stroke-miterlimit:4;stroke-opacity:1;stroke-dasharray:none"
         d="m 291.96434,198.0833 4.63279,0"
         id="path3822"
         inkscape:connector-curvature="0"
         sodipodi:nodetypes="cc" />
      <path
         sodipodi:nodetypes="cc"
         inkscape:connector-curvature="0"
         id="path3826"
         d="m 295.34045,187.52645 -4.47493,1.19906"
         style="fill:none;stroke:#000000;stroke-width:1.5;stroke-linecap:butt;stroke-linejoin:miter;stroke-miterlimit:4;stroke-opacity:1;stroke-dasharray:none"
         inkscape:transform-center-y="4.7109913" />
      <path
         sodipodi:nodetypes="cc"
         inkscape:connector-curvature="0"
         id="path3828"
         d="m 291.5758,177.65287 -4.01211,2.3164"
         style="fill:none;stroke:#000000;stroke-width:1.5;stroke-linecap:butt;stroke-linejoin:miter;stroke-miterlimit:4;stroke-opacity:1;stroke-dasharray:none" />
      <path
         sodipodi:nodetypes="cc"
         inkscape:connector-curvature="0"
         id="path3830"
         d="m 281.936,172.52597 3.27587,-3.27588"
         style="fill:none;stroke:#000000;stroke-width:1.5;stroke-linecap:butt;stroke-linejoin:miter;stroke-miterlimit:4;stroke-opacity:1;stroke-dasharray:none" />
      <path
         style="fill:none;stroke:#000000;stroke-width:1.5;stroke-linecap:butt;stroke-linejoin:miter;stroke-miterlimit:4;stroke-opacity:1;stroke-dasharray:none"
         d="m 230.71427,172.52597 -3.27587,-3.27588"
         id="path3832"
         inkscape:connector-curvature="0"
         sodipodi:nodetypes="cc" />
      <path
         style="fill:none;stroke:#000000;stroke-width:1.5;stroke-linecap:butt;stroke-linejoin:miter;stroke-miterlimit:4;stroke-opacity:1;stroke-dasharray:none"
         d="m 235.8481,162.45789 2.31639,4.01212"
         id="path3834"
         inkscape:connector-curvature="0"
         sodipodi:nodetypes="cc" />
      <path
         sodipodi:nodetypes="cc"
         inkscape:connector-curvature="0"
         id="path3836"
         d="m 276.6019,162.35082 -2.31639,4.01212"
         style="fill:none;stroke:#000000;stroke-width:1.5;stroke-linecap:butt;stroke-linejoin:miter;stroke-miterlimit:4;stroke-opacity:1;stroke-dasharray:none" />
      <path
         sodipodi:nodetypes="cc"
         inkscape:connector-curvature="0"
         id="path3838"
         d="m 256.05747,161.75518 0,-4.63279"
         style="fill:none;stroke:#000000;stroke-width:1.5;stroke-linecap:butt;stroke-linejoin:miter;stroke-miterlimit:4;stroke-opacity:1;stroke-dasharray:none" />
      <path
         style="fill:none;stroke:#000000;stroke-width:1.5;stroke-linecap:butt;stroke-linejoin:miter;stroke-miterlimit:4;stroke-opacity:1;stroke-dasharray:none"
         d="m 265.52233,162.63986 1.19906,-4.47493"
         id="path3840"
         inkscape:connector-curvature="0"
         sodipodi:nodetypes="cc" />
      <path
         sodipodi:nodetypes="cc"
         inkscape:connector-curvature="0"
         id="path3842"
         d="m 246.69968,162.96106 -1.19906,-4.47493"
         style="fill:none;stroke:#000000;stroke-width:1.5;stroke-linecap:butt;stroke-linejoin:miter;stroke-miterlimit:4;stroke-opacity:1;stroke-dasharray:none" />
    </g>
  </g>
</svg>
