<?xml version="1.0" encoding="UTF-8"?>
<!DOCTYPE svg PUBLIC "-//W3C//DTD SVG 1.1//EN" "http://www.w3.org/Graphics/SVG/1.1/DTD/svg11.dtd">
<svg version="1.1" xmlns="http://www.w3.org/2000/svg" xmlns:xlink="http://www.w3.org/1999/xlink" x="0" y="0" width="20.6" height="19" viewBox="0, 0, 20.6, 19">
  <g id="Layer_2">
    <path d="M10.346,0 C4.183,0 0,3.132 0,8.006 C0,11.005 1.25,13.408 3.666,14.953 C3.826,15.056 4.017,15.072 3.946,15.369 C3.657,16.57 3.157,18.71 3.157,18.71 C3.135,18.8 3.17,18.895 3.244,18.951 C3.318,19.007 3.418,19.016 3.5,18.972 C3.5,18.972 7.036,16.883 7.507,16.622 C8.607,15.995 9.554,15.874 10.266,15.874 C15.153,15.874 20.6,13.924 20.6,7.954 C20.6,3.324 16.857,0 10.346,0 z" fill="#000000"/>
  </g>
</svg>
