<svg xmlns:svg="http://www.w3.org/2000/svg" xmlns="http://www.w3.org/2000/svg" version="1.1" width="22.15" height="18" xml:space="preserve"><defs><clipPath clipPathUnits="userSpaceOnUse"><path d="M0 2221.78 0 0l2733.9 0 0 2221.78-2733.9 0z"/></clipPath></defs><g transform="matrix(1.25,0,0,-1.25,0,18.000001)"><g transform="scale(0.00648129,0.00648129)"><g clip-path="url(#clipPath18)"><path d="M859.8 0C543.05 0 248.22 92.85 0 251.99c43.88-5.18 88.53-7.83 133.8-7.83 262.78 0 504.63 89.67 696.59 240.1-245.44 4.53-452.58 166.69-523.95 389.53 34.25-6.55 69.38-10.06 105.53-10.06 51.15 0 100.7 6.85 147.77 19.67-256.59 51.52-449.93 278.22-449.93 549.98 0 2.37 0.01 4.71 0.05 7.05 75.63-42.01 162.11-67.24 254.05-70.15-150.5 100.58-249.52 272.26-249.52 466.85 0 102.8 27.65 199.14 75.93 281.98 276.65-339.34 689.93-562.64 1156.09-586.03-9.56 41.05-14.53 83.86-14.53 127.82 0 309.75 251.14 560.88 560.91 560.88 161.32 0 307.09-68.12 409.41-177.13 127.76 25.16 247.8 71.84 356.17 136.12-41.88-130.98-130.81-240.9-246.62-310.32 113.46 13.56 221.56 43.71 322.15 88.32-75.2-112.48-170.3-211.27-279.88-290.35 1.08-24.05 1.62-48.24 1.62-72.56C2455.64 854.67 1891.48 0 859.8 0" fill="#6babe1"/></g></g></g></svg>