<?xml version="1.0" encoding="UTF-8" standalone="no"?>
<!-- Created with Inkscape (http://www.inkscape.org/) -->

<svg
   xmlns:dc="http://purl.org/dc/elements/1.1/"
   xmlns:cc="http://creativecommons.org/ns#"
   xmlns:rdf="http://www.w3.org/1999/02/22-rdf-syntax-ns#"
   xmlns:svg="http://www.w3.org/2000/svg"
   xmlns="http://www.w3.org/2000/svg"
   xmlns:sodipodi="http://sodipodi.sourceforge.net/DTD/sodipodi-0.dtd"
   xmlns:inkscape="http://www.inkscape.org/namespaces/inkscape"
   id="svg2"
   version="1.1"
   inkscape:version="0.48.2 r9819"
   width="22.148998"
   height="18"
   xml:space="preserve"
   sodipodi:docname="twitter-mark-source.svg"
   inkscape:export-filename="/Users/ryanshaw/Code/periodo.github.io/images/twitter-mark.png"
   inkscape:export-xdpi="90"
   inkscape:export-ydpi="90"><metadata
     id="metadata8"><rdf:RDF><cc:Work
         rdf:about=""><dc:format>image/svg+xml</dc:format><dc:type
           rdf:resource="http://purl.org/dc/dcmitype/StillImage" /><dc:title></dc:title></cc:Work></rdf:RDF></metadata><defs
     id="defs6"><clipPath
       clipPathUnits="userSpaceOnUse"
       id="clipPath18"><path
         d="M 0,2221.78 0,0 l 2733.9,0 0,2221.78 -2733.9,0 z"
         id="path20"
         inkscape:connector-curvature="0" /></clipPath></defs><sodipodi:namedview
     pagecolor="#ffffff"
     bordercolor="#666666"
     borderopacity="1"
     objecttolerance="10"
     gridtolerance="10"
     guidetolerance="10"
     inkscape:pageopacity="0"
     inkscape:pageshadow="2"
     inkscape:window-width="640"
     inkscape:window-height="480"
     id="namedview4"
     showgrid="false"
     inkscape:showpageshadow="false"
     fit-margin-top="0"
     fit-margin-left="0"
     fit-margin-right="0"
     fit-margin-bottom="0"
     inkscape:zoom="24.625"
     inkscape:cx="14.765999"
     inkscape:cy="12.000001"
     inkscape:current-layer="g10" /><g
     id="g10"
     inkscape:groupmode="layer"
     inkscape:label="ink_ext_XXXXXX"
     transform="matrix(1.25,0,0,-1.25,0,18.000001)"><g
       id="g12"
       transform="scale(0.00648129,0.00648129)"><g
         id="g14"><g
           id="g16"
           clip-path="url(#clipPath18)"><path
             d="M 859.797,0 C 543.047,0 248.223,92.8516 0,251.988 c 43.8789,-5.179 88.5273,-7.828 133.801,-7.828 262.781,0 504.629,89.672 696.59,240.102 -245.442,4.527 -452.579,166.687 -523.953,389.527 34.246,-6.551 69.382,-10.059 105.527,-10.059 51.148,0 100.703,6.852 147.769,19.668 -256.589,51.524 -449.929,278.222 -449.929,549.982 0,2.37 0.007,4.71 0.047,7.05 75.628,-42.01 162.113,-67.24 254.054,-70.15 -150.5,100.58 -249.519,272.26 -249.519,466.85 0,102.8 27.652,199.14 75.933,281.98 276.645,-339.34 689.934,-562.64 1156.09,-586.03 -9.56,41.05 -14.53,83.86 -14.53,127.82 0,309.75 251.14,560.88 560.91,560.88 161.32,0 307.09,-68.12 409.41,-177.13 127.76,25.16 247.8,71.84 356.17,136.12 -41.88,-130.98 -130.81,-240.9 -246.62,-310.32 113.46,13.56 221.56,43.71 322.15,88.32 -75.2,-112.48 -170.3,-211.27 -279.88,-290.35 1.08,-24.05 1.62,-48.24 1.62,-72.56 C 2455.64,854.672 1891.48,0 859.797,0"
             style="fill:#6babe1;fill-opacity:1;fill-rule:nonzero;stroke:none"
             id="path22"
             inkscape:connector-curvature="0" /></g></g></g></g></svg>